<?xml version="1.0" encoding="UTF-8" standalone="no"?> <svg xmlns="http://www.w3.org/2000/svg" version="1.0" width="400.000000pt" height="400.000000pt" viewBox="0 0 400.000000 400.000000" preserveAspectRatio="xMidYMid meet"><g transform="translate(0.000000,400.000000) scale(0.100000,-0.100000)" fill="#000000" stroke="none"><path d="M604 2882 c3 -5 354 -179 781 -388 427 -208 770 -380 763 -381 -7 -2 -267 5 -578 15 -311 10 -566 17 -568 16 -2 -1 210 -232 470 -512 l473 -511 725 0 c449 -1 720 3 715 8 -6 5 -361 181 -790 391 -429 210 -783 384 -787 388 -4 4 41 6 100 4 701 -20 1078 -29 1080 -27 3 2 -686 748 -870 943 l-60 62 -729 0 c-402 0 -728 -4 -725 -8z"></path><path d="M3410 2544 c-179 -68 -380 -145 -448 -170 -67 -26 -121 -48 -120 -49 2 -1 113 13 248 31 134 18 247 31 250 28 5 -6 -160 -676 -170 -687 -5 -6 -243 17 -395 38 -24 4 -36 2 -30 -3 6 -5 111 -51 235 -102 124 -51 272 -112 330 -136 57 -24 110 -44 116 -44 6 0 38 105 73 243 101 394 242 941 247 960 3 9 2 17 -3 16 -4 0 -154 -57 -333 -125z"></path><path d="M462 2218 c-51 -200 -121 -475 -157 -612 -53 -208 -61 -247 -47 -243 16 4 376 142 705 269 86 34 156 63 153 65 -2 2 -110 -11 -240 -28 -130 -18 -239 -30 -241 -27 -3 2 34 160 81 351 l86 346 26 -4 c37 -7 401 -45 421 -45 14 1 14 2 1 10 -17 9 -656 270 -680 277 -13 3 -33 -65 -108 -359z"></path></g></svg> 